<?xml version="1.0" encoding="utf-8"?>
<!-- Generator: Adobe Illustrator 16.0.0, SVG Export Plug-In . SVG Version: 6.00 Build 0)  -->
<!DOCTYPE svg PUBLIC "-//W3C//DTD SVG 1.1//EN" "http://www.w3.org/Graphics/SVG/1.1/DTD/svg11.dtd">
<svg version="1.1" id="Layer_1" xmlns="http://www.w3.org/2000/svg" xmlns:xlink="http://www.w3.org/1999/xlink" x="0px" y="0px"
	 width="612px" height="792px" viewBox="0 0 612 792" enable-background="new 0 0 612 792" xml:space="preserve">
<g>
	<g>
		<g>
			<path fill="#DA2135" d="M430.869,620.704c-5.468-1.388-11.006,1.958-12.362,7.415l-10.199,40.8
				c-1.377,5.478,1.958,11.006,7.425,12.373c0.826,0.214,1.663,0.306,2.479,0.306c4.569,0,8.721-3.091,9.884-7.722l10.199-40.8
				C439.661,627.61,436.336,622.072,430.869,620.704z"/>
			<path fill="#DA2135" d="M306,416.4c1.326,0,2.653-0.255,3.897-0.775l112.2-46.431c5.202-2.152,7.67-8.119,5.519-13.321
				c-2.152-5.213-8.14-7.661-13.331-5.528L306,395.162L20.4,276.985v-3.386c0-5.63-4.569-10.199-10.199-10.199S0,267.969,0,273.599
				v10.199c0,4.131,2.489,7.854,6.305,9.426l295.8,122.399C303.347,416.144,304.675,416.4,306,416.4z"/>
			<path fill="#DA2135" d="M427.34,520.898c-2.488-5.049-8.588-7.13-13.657-4.631c-19.37,9.578-51.725,20.717-97.481,22.237v-91.505
				c0-5.63-4.569-10.2-10.199-10.2s-10.2,4.57-10.2,10.2v91.412c-126.652-4.039-167.524-80.764-173.4-93.534V375.6
				c0-5.63-4.569-10.2-10.199-10.2s-10.2,4.57-10.2,10.2v71.399c0,1.295,0.245,2.58,0.725,3.794
				c1.775,4.416,45.187,108.405,203.276,108.405c55.253,0,93.973-13.403,116.719-24.645
				C427.777,532.056,429.849,525.947,427.34,520.898z"/>
			<path fill="#DA2135" d="M459,630.599c-5.641,0-10.199,4.569-10.199,10.199v30.601c0,5.63,4.559,10.199,10.199,10.199
				c5.642,0,10.2-4.569,10.2-10.199v-30.601C469.2,635.168,464.641,630.599,459,630.599z"/>
			<path fill="#DA2135" d="M601.801,263.399c-5.641,0-10.199,4.57-10.199,10.2v3.366l-122.4,50.377V308.91l136.496-56.488
				c3.814-1.57,6.305-5.294,6.305-9.425s-2.489-7.844-6.294-9.425L309.897,111.174c-2.5-1.03-5.294-1.03-7.792,0L6.304,233.573
				C2.489,235.156,0,238.867,0,242.998c0,4.132,2.489,7.854,6.305,9.426l295.8,122.399c1.245,0.521,2.57,0.776,3.897,0.776
				c1.326,0,2.652-0.255,3.896-0.776l106.958-44.257c5.213-2.143,7.681-8.109,5.528-13.322c-2.153-5.202-8.12-7.661-13.322-5.519
				L306,354.363L36.873,242.998L306,131.635l269.127,111.363l-117.105,48.461l-112.169-41.882c0.591-2.121,0.948-4.304,0.948-6.579
				c0-17.156-17.921-30.6-40.799-30.6c-22.879,0-40.8,13.443-40.8,30.6c0,17.157,17.921,30.601,40.8,30.601
				c10.21,0,19.318-2.785,26.396-7.272l116.402,43.463v32.681v0.011v218.597c-11.842,4.232-20.4,15.442-20.4,28.724
				c0,16.87,13.729,30.6,30.6,30.6c16.871,0,30.601-13.729,30.601-30.6c0-13.28-8.558-24.49-20.4-28.724v-57.896
				c29.284-22.104,39.78-51.54,40.239-52.846c0.366-1.071,0.561-2.203,0.561-3.335v-71.399c0-5.63-4.56-10.199-10.2-10.199
				s-10.199,4.569-10.199,10.199v69.514c-1.765,4.324-7.896,17.655-20.4,30.813V349.406l136.486-56.171
				c3.825-1.571,6.314-5.304,6.314-9.436V273.6C612,267.969,607.441,263.399,601.801,263.399z M306,253.198
				c-12.454,0-20.4-6.039-20.4-10.2s7.945-10.199,20.4-10.199c12.456,0,20.4,6.039,20.4,10.199
				C326.4,247.16,318.454,253.198,306,253.198z M459,599.999c-5.63,0-10.199-4.579-10.199-10.2c0-5.62,4.569-10.199,10.199-10.199
				c5.631,0,10.2,4.579,10.2,10.199C469.2,595.418,464.631,599.999,459,599.999z"/>
			<path fill="#DA2135" d="M499.494,628.119c-1.366-5.456-6.916-8.792-12.362-7.415c-5.467,1.366-8.792,6.905-7.425,12.372
				l10.199,40.8c1.163,4.631,5.314,7.722,9.885,7.722c0.816,0,1.651-0.092,2.479-0.306c5.468-1.366,8.793-6.896,7.426-12.373
				L499.494,628.119z"/>
		</g>
	</g>
</g>
</svg>
