<?xml version="1.0" encoding="utf-8"?>
<!-- Generator: Adobe Illustrator 21.0.0, SVG Export Plug-In . SVG Version: 6.00 Build 0)  -->
<svg version="1.1" id="Capa_1" xmlns="http://www.w3.org/2000/svg" xmlns:xlink="http://www.w3.org/1999/xlink" x="0px" y="0px"
	 viewBox="0 0 512 512" style="enable-background:new 0 0 512 512;" xml:space="preserve">
<style type="text/css">
	.st0{fill:#676869;}
</style>
<g>
	<path class="st0" d="M256,1.1C114.6,1.1,0,115.7,0,257.1c0,126.8,92.3,231.8,213.3,252.2V310.5h-61.8V239h61.8v-52.7
		c0-61.2,37.4-94.5,92-94.5c26.1,0,48.6,1.9,55.1,2.8v64l-37.9,0c-29.7,0-35.4,14.1-35.4,34.8v45.6H358l-9.2,71.5h-61.6v200.5
		C413.8,495.5,512,387.8,512,257C512,115.7,397.4,1.1,256,1.1z"/>
</g>
</svg>
