<?xml version="1.0" encoding="iso-8859-1"?>
<!-- Generator: Adobe Illustrator 19.0.0, SVG Export Plug-In . SVG Version: 6.00 Build 0)  -->
<svg version="1.1" id="Capa_1" xmlns="http://www.w3.org/2000/svg" xmlns:xlink="http://www.w3.org/1999/xlink" x="0px" y="0px"
	 viewBox="0 0 459.352 459.352" style="enable-background:new 0 0 459.352 459.352;" xml:space="preserve">
<g>
	<g>
		
			<rect x="137.67" y="303.028" transform="matrix(0.8944 -0.4472 0.4472 0.8944 -124.1394 98.0816)" width="15.999" height="17.887"/>
	</g>
</g>
<g>
	<g>
		<rect x="312.712" y="303.968" transform="matrix(0.4472 -0.8944 0.8944 0.4472 -101.2255 460.1497)" width="17.887" height="16"/>
	</g>
</g>
<g>
	<g>
		<path d="M352.396,220.416l0.016-0.024L298.42,193.4l-20.744-20.744l-0.016,0.016l-0.032-0.032
			c5.152-8.6,8.048-18.488,8.048-28.608v-1.168c13.76-3.576,24-16,24-30.864c0-0.016,0-0.024,0-0.032V80c0-44.112-35.888-80-80-80
			s-80,35.888-80,80v31.968c0,0.016,0,0.024,0,0.032c0,14.864,10.24,27.288,24,30.864v1.168c0,10.176,2.928,20.104,8.04,28.624
			l-0.016,0.016l-0.024-0.024l-20.736,20.776l-53.992,26.96l0.016,0.032l-45.288,22.64V456h16V252.944l36.432-18.216l17.424,34.848
			l-31.784,23.832l71.92,159.832c1.512,3.36,4.832,5.424,8.384,5.424c0.736,0,1.472-0.088,2.208-0.272
			c4.32-1.064,7.248-5.056,6.976-9.504l-12.16-194.504l16.4-4.408l12.072,23.688L197.636,408.4l8.152,48.888l15.784-2.632
			l-7.848-47.112l7.504-127.568h16.912l7.504,127.568l-7.848,47.112l15.784,2.632l8.152-48.888l-7.928-134.744l12.104-23.92
			l16.384,4.296L270.068,449.56c-0.28,4.416,2.512,8.312,6.792,9.464c0.816,0.224,1.64,0.328,2.448,0.328
			c3.408,0,6.576-1.896,8.176-5.104l26.488-53.048c5.496,4.32,12.36,6.8,19.704,6.8c17.648,0,32-14.352,32-32
			c0-14.744-10.072-27.064-23.664-30.76l26.128-52.328l-40-24l17.096-34.192l36.44,18.224V456h16V243.056L352.396,220.416z
			 M119.596,298.528l32.216-24.168l-23.392-46.792l30.024-15.016l2.88,46.072l9.632,154.024L119.596,298.528z M285.676,125.848
			V98.144c4.776,2.768,8,7.944,8,13.848S290.452,123.08,285.676,125.848z M173.676,125.856c-4.776-2.776-8-7.944-8-13.856
			s3.224-11.08,8-13.848V125.856z M173.676,72.032v9.104c-2.848,0.744-5.52,1.864-8,3.312V80c0-35.288,28.712-64,64-64
			c35.288,0,64,28.712,64,64v4.448c-2.48-1.448-5.152-2.576-8-3.312v-9.104c0-8.528-3.336-16.56-9.384-22.616
			c-6.048-6.056-14.088-9.384-22.616-9.384h-3.312l-2.344,2.344c-9.776,9.776-26.912,9.776-36.688,0l-2.344-2.344h-3.312
			C188.028,40.032,173.676,54.384,173.676,72.032z M229.676,184c-10.728,0-20.76-4.16-28.256-11.728
			c-1.072-1.08-2.096-2.144-2.984-3.344l-0.472-0.64c-5.4-6.984-8.288-15.344-8.288-24.256V144V80v-7.968
			c0-7.856,5.696-14.416,13.176-15.752c15.024,12.52,38.624,12.52,53.64,0c3.192,0.568,6.136,2.096,8.488,4.448
			c3.032,3.032,4.696,7.048,4.696,11.304V80v64v0.032c0,9.008-2.928,17.464-8.48,24.528l-0.144,0.176
			C253.46,178.44,242.02,184,229.676,184z M257.988,192.352l-28.312,28.304l-28.304-28.312c0.104,0.064,0.224,0.104,0.336,0.168
			c0.84,0.488,1.688,0.968,2.544,1.408c0.4,0.2,0.808,0.376,1.208,0.576c1.192,0.568,2.384,1.128,3.616,1.608
			c0.32,0.128,0.648,0.224,0.968,0.344c1.328,0.496,2.672,0.968,4.04,1.368c0.168,0.048,0.336,0.08,0.496,0.128
			c4.848,1.344,9.912,2.088,15.096,2.088c1.064,0,2.104-0.12,3.16-0.176c0.8-0.048,1.608-0.056,2.4-0.136
			c1.104-0.104,2.176-0.288,3.264-0.456c0.816-0.128,1.64-0.256,2.448-0.416c1.064-0.216,2.112-0.472,3.16-0.752
			c0.8-0.208,1.592-0.44,2.376-0.688c1.032-0.32,2.056-0.656,3.064-1.04c0.608-0.232,1.208-0.488,1.808-0.744
			c0.112-0.048,0.224-0.104,0.336-0.152c0.032-0.016,0.064-0.024,0.088-0.04c1-0.432,2.008-0.84,2.984-1.328
			c0.608-0.304,1.176-0.664,1.768-0.992c0.24-0.136,0.48-0.264,0.72-0.4C257.492,192.576,257.748,192.488,257.988,192.352z
			 M186.068,235.4l-9.992,2.696l-2.184-35l7.784-7.784l32.528,32.528L186.068,235.4z M240.756,263.968H218.58l-9.296-18.232
			l20.416-5.488l16.376,4.296l3.984,1.048L240.756,263.968z M283.292,237.76l-10.008-2.624l-28.064-7.36l32.456-32.464l7.784,7.784
			L283.292,237.76z M349.676,376c0,8.824-7.176,16-16,16c-6.064,0-11.496-3.328-14.224-8.68l-0.064-0.128
			c-1.12-2.24-1.712-4.736-1.712-7.208c0.008-7.8,5.544-14.4,13.224-15.704c0.904-0.16,1.808-0.28,2.776-0.28
			C342.5,360,349.676,367.176,349.676,376z M307.204,275.016l40,24l-23.192,46.456c-0.336,0.104-0.632,0.272-0.96,0.384
			c-0.464,0.16-0.904,0.36-1.36,0.544c-1.232,0.496-2.424,1.032-3.576,1.664c-0.464,0.256-0.912,0.536-1.36,0.816
			c-1.064,0.664-2.088,1.368-3.056,2.144c-0.432,0.344-0.856,0.704-1.272,1.072c-0.912,0.808-1.76,1.664-2.576,2.568
			c-0.376,0.424-0.752,0.84-1.112,1.28c-0.76,0.944-1.44,1.936-2.08,2.96c-0.304,0.48-0.624,0.944-0.896,1.44
			c-0.6,1.072-1.104,2.2-1.576,3.344c-0.208,0.512-0.456,1-0.64,1.52c-0.44,1.248-0.768,2.552-1.056,3.864
			c-0.104,0.464-0.256,0.904-0.336,1.376c-0.296,1.808-0.48,3.64-0.48,5.52c0,0.008,0,0.008,0,0.016s0,0.008,0,0.016
			c0,0.024,0.008,0.056,0.008,0.08c0.008,2.168,0.312,4.32,0.76,6.448c0.136,0.656,0.312,1.288,0.496,1.936
			c0.184,0.664,0.288,1.344,0.512,2l-15.328,30.696l9.936-158.984l2.848-45.616l30.024,15.016L307.204,275.016z"/>
	</g>
</g>
<g>
</g>
<g>
</g>
<g>
</g>
<g>
</g>
<g>
</g>
<g>
</g>
<g>
</g>
<g>
</g>
<g>
</g>
<g>
</g>
<g>
</g>
<g>
</g>
<g>
</g>
<g>
</g>
<g>
</g>
</svg>
