<?xml version="1.0" encoding="utf-8"?>
<!-- Generator: Adobe Illustrator 16.0.0, SVG Export Plug-In . SVG Version: 6.00 Build 0)  -->
<!DOCTYPE svg PUBLIC "-//W3C//DTD SVG 1.1//EN" "http://www.w3.org/Graphics/SVG/1.1/DTD/svg11.dtd">
<svg version="1.1" id="Capa_1" xmlns="http://www.w3.org/2000/svg" xmlns:xlink="http://www.w3.org/1999/xlink" x="0px" y="0px"
	 width="612px" height="792px" viewBox="0 0 612 792" enable-background="new 0 0 612 792" xml:space="preserve">
<g>
	<path fill="#7C0F1F" d="M71.4,120.6c-22.501,0-40.8,18.299-40.8,40.8c0,22.502,18.299,40.801,40.8,40.801s40.8-18.299,40.8-40.801
		C112.2,138.899,93.901,120.6,71.4,120.6z M71.4,181.8c-11.251,0-20.4-9.149-20.4-20.4C51,150.15,60.149,141,71.4,141
		C82.65,141,91.8,150.15,91.8,161.4C91.8,172.651,82.65,181.8,71.4,181.8z"/>
	<path fill="#7C0F1F" d="M163.2,120.6c-22.501,0-40.8,18.299-40.8,40.8c0,22.502,18.299,40.801,40.8,40.801S204,183.902,204,161.4
		C204,138.899,185.701,120.6,163.2,120.6z M163.2,181.8c-11.251,0-20.4-9.149-20.4-20.4c0-11.25,9.149-20.399,20.4-20.399
		s20.4,9.149,20.4,20.399C183.6,172.651,174.451,181.8,163.2,181.8z"/>
	<path fill="#7C0F1F" d="M255,120.6c-22.501,0-40.8,18.299-40.8,40.8c0,22.502,18.299,40.801,40.8,40.801s40.8-18.299,40.8-40.801
		C295.8,138.899,277.501,120.6,255,120.6z M255,181.8c-11.25,0-20.399-9.149-20.399-20.4C234.6,150.15,243.75,141,255,141
		c11.251,0,20.4,9.149,20.4,20.399C275.4,172.651,266.251,181.8,255,181.8z"/>
	<path fill="#7C0F1F" d="M0,90v142.8v322.177V702h612V473.377V232.8V90H0z M20.4,110.4h571.2v102H20.4V110.4z M591.6,681.6h-20.4
		c0-5.631-4.569-10.2-10.2-10.2c-5.63,0-10.199,4.569-10.199,10.2H510c0-5.631-4.569-10.2-10.199-10.2
		c-5.631,0-10.2,4.569-10.2,10.2h-40.8c0-5.631-4.57-10.2-10.2-10.2c-5.631,0-10.2,4.569-10.2,10.2h-40.8
		c0-5.631-4.569-10.2-10.2-10.2c-5.63,0-10.2,4.569-10.2,10.2h-40.8c0-5.631-4.569-10.2-10.2-10.2c-5.63,0-10.2,4.569-10.2,10.2
		h-40.8c0-5.631-4.569-10.2-10.2-10.2c-5.63,0-10.2,4.569-10.2,10.2H204c0-5.631-4.569-10.2-10.2-10.2
		c-5.63,0-10.199,4.569-10.199,10.2H142.8c0-5.631-4.569-10.2-10.199-10.2c-5.631,0-10.2,4.569-10.2,10.2H81.6
		c0-5.631-4.57-10.2-10.2-10.2c-5.631,0-10.2,4.569-10.2,10.2H20.4V563.422l40.463-40.463c1.551,0.918,3.173,1.724,4.846,2.417
		c0.081,0.031,0.173,0.052,0.265,0.092c1.907,0.775,3.887,1.356,5.896,1.836c1.133,0.275,2.275,0.49,3.448,0.663
		c0.989,0.144,1.979,0.225,2.979,0.307c1.102,0.081,2.172,0.326,3.305,0.326c1.132,0,2.203-0.245,3.314-0.337
		c1-0.081,1.989-0.152,2.979-0.306c1.163-0.184,2.315-0.388,3.447-0.663c0.256-0.062,0.511-0.082,0.755-0.143
		c-0.081,0.489-0.296,0.938-0.296,1.448c0,5.63,4.57,10.2,10.2,10.2c4.387,0,8.048-2.795,9.486-6.682l17.595,17.596
		c-3.886,1.438-6.681,5.1-6.681,9.485c0,5.631,4.569,10.2,10.2,10.2c4.386,0,8.048-2.795,9.485-6.681l17.596,17.595
		c-3.876,1.438-6.682,5.1-6.682,9.486c0,5.63,4.57,10.2,10.2,10.2c5.631,0,10.2-4.57,10.2-10.2c0-4.387-2.795-8.048-6.681-9.486
		l17.595-17.595c1.438,3.876,5.1,6.681,9.485,6.681c5.631,0,10.2-4.569,10.2-10.2c0-4.386-2.795-8.048-6.681-9.485l17.595-17.596
		c1.438,3.887,5.101,6.682,9.486,6.682c5.63,0,10.2-4.57,10.2-10.2c0-4.386-2.795-8.048-6.682-9.486l17.596-17.595
		c1.438,3.886,5.1,6.681,9.485,6.681c5.631,0,10.2-4.569,10.2-10.199c0-0.511-0.214-0.959-0.296-1.449
		c0.245,0.062,0.51,0.092,0.755,0.144c1.132,0.275,2.274,0.489,3.447,0.662c0.99,0.144,1.979,0.225,2.979,0.307
		c1.112,0.092,2.183,0.337,3.315,0.337c1.132,0,2.203-0.245,3.314-0.337c1-0.082,1.989-0.153,2.979-0.307
		c1.163-0.184,2.315-0.387,3.448-0.662c2.009-0.47,3.988-1.062,5.896-1.837c0.081-0.03,0.173-0.051,0.265-0.091
		c1.673-0.694,3.285-1.489,4.846-2.418l50.653,50.674l81.263-81.264c1.551,0.918,3.173,1.724,4.846,2.418
		c0.081,0.03,0.173,0.051,0.265,0.092c1.907,0.774,3.887,1.356,5.896,1.836c1.133,0.275,2.274,0.489,3.448,0.663
		c0.989,0.143,1.979,0.224,2.979,0.306c1.102,0.081,2.172,0.326,3.305,0.326c1.132,0,2.203-0.245,3.314-0.337
		c1-0.081,1.989-0.152,2.979-0.306c1.163-0.184,2.315-0.388,3.447-0.663c0.256-0.061,0.511-0.081,0.755-0.143
		c-0.081,0.489-0.296,0.938-0.296,1.448c0,5.631,4.57,10.2,10.2,10.2c4.387,0,8.048-2.795,9.486-6.681l17.595,17.595
		c-3.886,1.438-6.681,5.1-6.681,9.486c0,5.63,4.569,10.199,10.2,10.199c4.386,0,8.048-2.795,9.485-6.681l17.596,17.595
		c-3.887,1.438-6.682,5.101-6.682,9.486c0,5.63,4.57,10.2,10.2,10.2c4.386,0,8.048-2.806,9.486-6.682l17.595,17.596
		c-3.886,1.438-6.681,5.1-6.681,9.485c0,5.631,4.569,10.2,10.199,10.2c5.631,0,10.2-4.569,10.2-10.2
		c0-4.386-2.795-8.048-6.681-9.485l17.595-17.596c1.438,3.876,5.101,6.682,9.486,6.682v40.8c-5.631,0-10.2,4.569-10.2,10.2
		c0,5.63,4.569,10.2,10.2,10.2v40.8c-5.631,0-10.2,4.569-10.2,10.2c0,5.63,4.569,10.199,10.2,10.199V681.6z M95.707,502.467
		c-7.65,7.334-20.573,7.334-28.224,0c-3.855-3.713-6.283-8.904-6.283-14.667c0-11.251,9.149-20.4,20.4-20.4
		c11.25,0,20.399,9.149,20.399,20.4C102,493.563,99.572,498.754,95.707,502.467z M289.507,471.867
		c-7.65,7.334-20.573,7.334-28.224,0c-3.855-3.713-6.283-8.904-6.283-14.668c0-11.25,9.149-20.399,20.4-20.399
		c11.25,0,20.399,9.149,20.399,20.399C295.8,462.963,293.373,468.155,289.507,471.867z M462.907,441.268
		c-7.65,7.333-20.573,7.333-28.224,0c-3.855-3.713-6.283-8.905-6.283-14.668c0-11.25,9.149-20.399,20.4-20.399
		c11.25,0,20.399,9.149,20.399,20.399C469.2,432.363,466.772,437.555,462.907,441.268z M591.6,493.777L561,524.377l-77.183-77.174
		c3.58-6.079,5.783-13.056,5.783-20.604c0-22.501-18.299-40.8-40.8-40.8c-22.502,0-40.801,18.299-40.801,40.8
		c0,7.548,2.204,14.524,5.784,20.594l-66.983,66.983l-36.384-36.384c3.58-6.068,5.783-13.046,5.783-20.594
		c0-22.501-18.299-40.8-40.8-40.8s-40.8,18.299-40.8,40.8c0,7.548,2.203,14.525,5.783,20.594L163.2,554.977l-46.583-46.573
		c3.58-6.079,5.783-13.056,5.783-20.604c0-22.502-18.299-40.8-40.8-40.8C59.098,447,40.8,465.298,40.8,487.8
		c0,7.548,2.204,14.524,5.784,20.594L20.4,534.577V232.8h571.2V493.777z"/>
	<path fill="#7C0F1F" d="M71.4,345h153c5.63,0,10.2-4.56,10.2-10.2s-4.57-10.2-10.2-10.2h-153c-5.631,0-10.2,4.56-10.2,10.2
		S65.769,345,71.4,345z"/>
	<path fill="#7C0F1F" d="M102,304.2h91.8c5.631,0,10.2-4.56,10.2-10.2s-4.569-10.2-10.2-10.2H102c-5.63,0-10.2,4.56-10.2,10.2
		S96.37,304.2,102,304.2z"/>
	<path fill="#7C0F1F" d="M71.4,385.8h153c5.63,0,10.2-4.56,10.2-10.2s-4.57-10.2-10.2-10.2h-153c-5.631,0-10.2,4.56-10.2,10.2
		S65.769,385.8,71.4,385.8z"/>
	<circle fill="#7C0F1F" cx="561" cy="620.4" r="10.2"/>
	<circle fill="#7C0F1F" cx="530.4" cy="589.8" r="10.2"/>
	<circle fill="#7C0F1F" cx="530.4" cy="651" r="10.2"/>
	<circle fill="#7C0F1F" cx="499.801" cy="620.4" r="10.2"/>
	<circle fill="#7C0F1F" cx="469.2" cy="589.8" r="10.2"/>
	<circle fill="#7C0F1F" cx="469.2" cy="651" r="10.2"/>
	<circle fill="#7C0F1F" cx="438.6" cy="620.4" r="10.2"/>
	<circle fill="#7C0F1F" cx="408" cy="589.8" r="10.2"/>
	<circle fill="#7C0F1F" cx="408" cy="651" r="10.2"/>
	<circle fill="#7C0F1F" cx="377.4" cy="620.4" r="10.2"/>
	<circle fill="#7C0F1F" cx="346.801" cy="589.8" r="10.2"/>
	<circle fill="#7C0F1F" cx="346.801" cy="651" r="10.2"/>
	<circle fill="#7C0F1F" cx="316.2" cy="620.4" r="10.2"/>
	<circle fill="#7C0F1F" cx="285.6" cy="589.8" r="10.2"/>
	<circle fill="#7C0F1F" cx="285.6" cy="651" r="10.2"/>
	<circle fill="#7C0F1F" cx="255" cy="620.4" r="10.2"/>
	<circle fill="#7C0F1F" cx="224.4" cy="589.8" r="10.2"/>
	<circle fill="#7C0F1F" cx="224.4" cy="651" r="10.2"/>
	<circle fill="#7C0F1F" cx="193.8" cy="620.4" r="10.2"/>
	<circle fill="#7C0F1F" cx="163.2" cy="651" r="10.2"/>
	<circle fill="#7C0F1F" cx="132.6" cy="620.4" r="10.2"/>
	<circle fill="#7C0F1F" cx="102" cy="589.8" r="10.2"/>
	<circle fill="#7C0F1F" cx="102" cy="651" r="10.2"/>
	<circle fill="#7C0F1F" cx="71.4" cy="620.4" r="10.2"/>
	<circle fill="#7C0F1F" cx="40.8" cy="589.8" r="10.2"/>
	<circle fill="#7C0F1F" cx="40.8" cy="651" r="10.2"/>
	<circle fill="#7C0F1F" cx="469.2" cy="528.6" r="10.2"/>
	<circle fill="#7C0F1F" cx="499.801" cy="559.2" r="10.2"/>
	<circle fill="#7C0F1F" cx="438.6" cy="498" r="10.2"/>
	<circle fill="#7C0F1F" cx="408" cy="528.6" r="10.2"/>
	<circle fill="#7C0F1F" cx="438.6" cy="559.2" r="10.2"/>
	<circle fill="#7C0F1F" cx="377.4" cy="559.2" r="10.2"/>
	<circle fill="#7C0F1F" cx="285.6" cy="528.6" r="10.2"/>
	<circle fill="#7C0F1F" cx="316.2" cy="559.2" r="10.2"/>
	<circle fill="#7C0F1F" cx="255" cy="559.2" r="10.2"/>
	<circle fill="#7C0F1F" cx="71.4" cy="559.2" r="10.2"/>
</g>
</svg>
