<?xml version="1.0" encoding="utf-8"?>
<!-- Generator: Adobe Illustrator 16.0.0, SVG Export Plug-In . SVG Version: 6.00 Build 0)  -->
<!DOCTYPE svg PUBLIC "-//W3C//DTD SVG 1.1//EN" "http://www.w3.org/Graphics/SVG/1.1/DTD/svg11.dtd">
<svg version="1.1" id="Layer_1" xmlns="http://www.w3.org/2000/svg" xmlns:xlink="http://www.w3.org/1999/xlink" x="0px" y="0px"
	 width="612px" height="792px" viewBox="0 0 612 792" enable-background="new 0 0 612 792" xml:space="preserve">
<g>
	<g>
		<g>
			<path fill="#DA2135" d="M430.869,620.703c-5.468-1.388-11.006,1.958-12.361,7.415l-10.199,40.8
				c-1.377,5.479,1.958,11.007,7.425,12.373c0.826,0.215,1.663,0.307,2.479,0.307c4.568,0,8.721-3.091,9.884-7.723l10.199-40.8
				C439.661,627.61,436.337,622.072,430.869,620.703z"/>
			<path fill="#DA2135" d="M306,416.4c1.326,0,2.653-0.255,3.897-0.774l112.2-46.432c5.202-2.151,7.67-8.118,5.519-13.32
				c-2.151-5.213-8.14-7.661-13.331-5.528L306,395.162L20.4,276.985v-3.386c0-5.63-4.569-10.199-10.199-10.199S0,267.969,0,273.599
				v10.199c0,4.131,2.489,7.854,6.306,9.426l295.8,122.399C303.347,416.144,304.676,416.4,306,416.4z"/>
			<path fill="#DA2135" d="M427.341,520.898c-2.488-5.049-8.588-7.13-13.657-4.631c-19.37,9.578-51.726,20.717-97.481,22.237
				v-91.506c0-5.63-4.568-10.199-10.198-10.199c-5.631,0-10.201,4.569-10.201,10.199v91.412
				c-126.651-4.039-167.523-80.764-173.399-93.533V375.6c0-5.63-4.569-10.2-10.199-10.2s-10.2,4.57-10.2,10.2v71.398
				c0,1.296,0.245,2.58,0.726,3.795c1.774,4.416,45.187,108.404,203.276,108.404c55.253,0,93.973-13.402,116.719-24.645
				C427.777,532.056,429.849,525.947,427.341,520.898z"/>
			<path fill="#DA2135" d="M459,630.599c-5.641,0-10.198,4.569-10.198,10.199v30.601c0,5.63,4.559,10.199,10.198,10.199
				c5.643,0,10.2-4.569,10.2-10.199v-30.601C469.2,635.168,464.641,630.599,459,630.599z"/>
			<path fill="#DA2135" d="M601.802,263.399c-5.642,0-10.199,4.57-10.199,10.2v3.366l-122.4,50.377V308.91l136.496-56.488
				c3.814-1.57,6.306-5.294,6.306-9.425c0-4.132-2.489-7.845-6.294-9.426L309.897,111.174c-2.5-1.03-5.294-1.03-7.792,0
				L6.304,233.573C2.489,235.156,0,238.867,0,242.998c0,4.132,2.489,7.854,6.306,9.426l295.8,122.398
				c1.245,0.521,2.57,0.776,3.897,0.776c1.325,0,2.651-0.255,3.896-0.776l106.958-44.257c5.213-2.143,7.681-8.108,5.528-13.321
				c-2.153-5.202-8.12-7.661-13.322-5.52L306,354.363L36.873,242.998L306,131.635l269.128,111.363l-117.105,48.461l-112.169-41.882
				c0.591-2.121,0.948-4.305,0.948-6.579c0-17.156-17.921-30.601-40.799-30.601c-22.88,0-40.801,13.443-40.801,30.601
				c0,17.156,17.921,30.601,40.801,30.601c10.21,0,19.317-2.785,26.396-7.271l116.402,43.463v32.681v0.011v218.597
				c-11.843,4.232-20.4,15.442-20.4,28.725c0,16.87,13.729,30.6,30.6,30.6c16.871,0,30.602-13.729,30.602-30.6
				c0-13.28-8.558-24.49-20.4-28.725v-57.896c29.284-22.104,39.78-51.54,40.239-52.846c0.366-1.071,0.562-2.203,0.562-3.335v-71.399
				c0-5.63-4.561-10.199-10.2-10.199c-5.641,0-10.199,4.569-10.199,10.199v69.514c-1.765,4.324-7.896,17.655-20.4,30.813V349.406
				l136.486-56.171c3.825-1.57,6.314-5.304,6.314-9.436V273.6C612,267.969,607.441,263.399,601.802,263.399z M306,253.198
				c-12.454,0-20.399-6.038-20.399-10.199s7.944-10.199,20.399-10.199c12.456,0,20.4,6.039,20.4,10.199
				C326.4,247.16,318.454,253.198,306,253.198z M459,599.998c-5.63,0-10.198-4.578-10.198-10.199c0-5.62,4.568-10.199,10.198-10.199
				c5.632,0,10.2,4.579,10.2,10.199C469.2,595.418,464.632,599.998,459,599.998z"/>
			<path fill="#DA2135" d="M499.494,628.118c-1.365-5.456-6.916-8.792-12.361-7.415c-5.468,1.366-8.792,6.905-7.426,12.372
				l10.199,40.801c1.163,4.631,5.314,7.722,9.885,7.722c0.816,0,1.651-0.092,2.479-0.307c5.468-1.365,8.793-6.896,7.426-12.372
				L499.494,628.118z"/>
		</g>
	</g>
</g>
</svg>
