<?xml version="1.0" encoding="utf-8"?>
<!-- Generator: Adobe Illustrator 21.0.0, SVG Export Plug-In . SVG Version: 6.00 Build 0)  -->
<svg version="1.1" id="Capa_1" xmlns="http://www.w3.org/2000/svg" xmlns:xlink="http://www.w3.org/1999/xlink" x="0px" y="0px"
	 viewBox="0 0 492.4 492.4" style="enable-background:new 0 0 492.4 492.4;" xml:space="preserve">
<style type="text/css">
	.st0{fill:#DA2134;}
</style>
<g>
	<g>
		<g>
			
				<rect x="316.7" y="182.4" transform="matrix(0.7071 -0.7071 0.7071 0.7071 -42.8494 293.3976)" class="st0" width="32" height="32"/>
			<path class="st0" d="M490.8,353.9c0-12.7-5-24.9-14-33.9l-29.3-29.3l8.5-8.5l11.4-79.2l18.8-18.8l-22.6-22.6l-26.3,26.3
				l-11.4,79.2l-0.9,0.9l-46.9-47l-22.6,22.6l98.8,98.9c6.2,6.2,6.2,16.4,0,22.6c-5.8,5.6-14.9,6.1-21.3,1.2L307.1,240.8l-22.7,22.6
				l124.4,124.4c0.7,0.7,1.5,1.4,2.2,2.1l21.1,21.1c2.9,2.8,4.4,6.7,4.4,10.7c0,4.3-1.9,8.4-5,11.3c-6.3,6.2-16.4,6.2-22.8,0.1
				L388.7,413c-0.6-0.6-1.2-1.2-1.8-1.9L261.8,286l-22.6,22.6l126.1,126.2c2.2,2.7,3.5,6.1,3.4,9.6c-0.1,4.3-1.8,8.3-5,11.2
				c-6.3,6.1-16.4,6.2-22.8,0.1l-43.9-43.9l-0.7-0.8l-2.3-2.3l-22.6,22.7l2.7,2.7c2.6,2.8,4,6.4,4,10.2c-0.1,4.3-1.9,8.3-5,11.2
				c-6.3,6.1-16.3,6.2-22.7,0.1l-7.7-7.7l3-3c18.7-18.2,19.2-48.2,1-66.9c-8.5-8.8-20.2-13.9-32.4-14.3c-0.5-18-11.3-34.1-27.7-41.4
				c16.9-20.2,14.2-50.3-6.1-67.2c-17.7-14.8-43.4-14.8-61.1,0c-2.3-5.1-5.5-9.8-9.5-13.8c-14.2-13.5-35.1-17.3-53.2-9.7L50.5,188
				l-26.4-26.4L1.6,184.2l18.8,18.9l7.5,52.6l-11.1,11.1c-18.8,18.5-19,48.8-0.4,67.6c8.5,8.6,19.8,13.6,31.9,14.2
				c0.5,11.8,5.4,23.1,13.8,31.5c8.4,8.3,19.6,13.2,31.5,13.8c0.5,11.8,5.4,23,13.8,31.5c8.4,8.3,19.6,13.3,31.5,13.8
				c1.3,26.4,23.7,46.7,50.1,45.4c11.7-0.6,22.8-5.4,31.2-13.7l7.7,7.7c19.2,18.6,49.7,18.3,68.6-0.7c3.6-3.6,6.6-7.8,8.9-12.4
				l13.1,13c9,9,21.2,14.1,33.9,14c13.1,0,25.6-5.4,34.7-14.8c4-4,7.3-8.8,9.6-14c19.2,10.4,42.9,6.9,58.2-8.6
				c15.2-15.2,18.2-38.7,7.4-57.2c5.4-2.4,10.4-5.8,14.6-10C485.8,378.9,490.8,366.7,490.8,353.9z M39.5,312
				c-6.2-6.2-6.2-16.4,0-22.6l25.3-25.3c6-6.4,16.2-6.8,22.6-0.7c6.4,6,6.8,16.2,0.7,22.6c-0.2,0.2-0.5,0.5-0.7,0.7L62.1,312
				C55.9,318.2,45.8,318.2,39.5,312z M84.8,357.2c-6.3-6.2-6.3-16.4,0-22.6c0,0,0,0,0,0l25.3-25.3l28.2-28.2c6.3-6,16.3-6,22.6,0
				c6.2,6.2,6.2,16.4,0,22.6L132.7,332l-25.3,25.3C101.1,363.5,91,363.5,84.8,357.2z M152.7,402.5c-6.2,6.2-16.4,6.2-22.6,0
				c0,0,0,0,0,0l0,0c-6.2-6.2-6.2-16.4,0-22.6l25.3-25.3c6.3-6.3,16.4-6.3,22.6,0s6.3,16.4,0,22.6L152.7,402.5z M223.9,421.7
				c-0.2,0.2-0.5,0.5-0.7,0.7l-25.3,25.3c-6.1,6.4-16.3,6.5-22.6,0.4s-6.5-16.3-0.4-22.6c0.1-0.1,0.3-0.3,0.4-0.4l25.3-25.3
				c6-6.4,16.2-6.8,22.6-0.7C229.6,405.2,230,415.3,223.9,421.7z"/>
			<path class="st0" d="M120.4,122.5c0,30.9,25,55.9,55.9,55.9c6.4,0,12.8-1.1,18.8-3.2l67.6-24l24.8,24.8l22.6-22.7l-39-39.1
				L184.3,145c-11.8,4-24.6-1.5-29.8-12.8c-5.4-12.1,0.1-26.2,12.1-31.6c0.3-0.2,0.7-0.3,1-0.4l105-40.8l52.1-31.1L308.2,0.8
				L259.8,30l-52.5,20.4L156.9,0l-22.6,22.6l40.5,40.5L156,70.4C134.5,78.6,120.3,99.4,120.4,122.5z"/>
		</g>
	</g>
</g>
</svg>
