<?xml version="1.0" encoding="utf-8"?>
<!-- Generator: Adobe Illustrator 21.0.0, SVG Export Plug-In . SVG Version: 6.00 Build 0)  -->
<svg version="1.1" id="Layer_1" xmlns="http://www.w3.org/2000/svg" xmlns:xlink="http://www.w3.org/1999/xlink" x="0px" y="0px"
	 viewBox="0 0 512 512" style="enable-background:new 0 0 512 512;" xml:space="preserve">
<style type="text/css">
	.st0{fill:#DA2134;}
</style>
<g>
	<g>
		<path class="st0" d="M454.9,430.4l-8.4-3.4C488.8,380,512,319.5,512,256c0-52-15.7-102-44.3-144c-0.3-0.7-0.8-1.3-1.3-1.8
			c-12.5-18.1-27.5-34.7-44.6-49.2c-3.4-2.9-8.5-2.5-11.4,0.9c-2.9,3.4-2.5,8.5,0.9,11.4c13.7,11.7,26,24.8,36.6,38.9
			c-17.1,6.7-37.7,12.4-60.6,16.8c-6.3-18.9-14.1-36.4-23.3-52.3c-12.3-21.4-26.5-38.6-42-51.3c24.1,6.9,47,17.5,68,31.7
			c3.7,2.5,8.7,1.5,11.2-2.2c2.5-3.7,1.5-8.7-2.2-11.2C356.8,15.1,307.3,0,256,0C187.6,0,123.3,26.6,75,75C26.6,123.3,0,187.6,0,256
			c0,63.6,23.3,124.1,65.6,171.1l-8.3,3.3c-3.1,1.1-29.1,11.5-29.1,44.6v29c0,4.5,3.6,8.1,8.1,8.1h46.5h7.2h8.6h41.4h15.3
			c0.4,0,0.8,0,1.1-0.1c0.4,0.1,0.8,0.1,1.1,0.1h32.9c4.5,0,8.1-3.6,8.1-8.1c0-4.5-3.6-8.1-8.1-8.1h-24.8v-28.2
			c0-29.7,23.3-38.2,24.3-38.6c0.1,0,0.2-0.1,0.4-0.1l39.4-15.4c0.1,0.1,0.2,0.2,0.3,0.3l20.9,20.4c1.5,1.5,3.5,2.3,5.6,2.3
			c0,0,0.1,0,0.1,0c2.2,0,4.2-0.9,5.7-2.5l20.1-20.8l39.3,15.8c0.1,0.1,0.2,0.1,0.4,0.1c1,0.3,24.3,8.9,24.3,38.6v28.2h-59.1h-62.5
			h-9.1c-4.5,0-8.1,3.6-8.1,8.1c0,4.5,3.6,8.1,8.1,8.1h9.1h62.5h67.2h0h0h10.3h7.2h8.6h41.4h53.7c4.5,0,8.1-3.7,8.1-8.1v-28.9
			C483.9,442,458.1,431.6,454.9,430.4z M430.4,420.6l-8-3.2v-4.6c8.8-5.2,15.6-13.4,18.8-23.3c11.8-0.9,21.1-10.8,21.1-22.8
			c0-7.1-3.3-13.5-8.4-17.7v-14.4c0-27.7-20.8-50.6-47.6-54c0.3-5.5,0.5-11,0.6-16.5h88.8C493.7,322.6,470.8,377.9,430.4,420.6z
			 M401.2,402.4h-7.4c-14.3,0-25.9-11.6-25.9-25.9v-21.4l0,0c10.5-1.1,29.2-4.8,43.6-16.8c3.2,5.5,8.2,11.5,15.6,15v23.2
			C427.1,390.8,415.5,402.4,401.2,402.4z M406.3,418.2v4.5l-9,9.3l-8.5-8.2v-5.6c1.7,0.2,3.3,0.3,5,0.3h7.4
			C403,418.6,404.6,418.4,406.3,418.2z M359.9,339.5C359.9,339.5,359.9,339.5,359.9,339.5c-0.3,0-0.6,0-0.9,0c-0.1,0-0.2,0-0.3,0
			c-0.2,0-0.4,0-0.5,0.1c-0.1,0-0.2,0.1-0.4,0.1c-0.1,0-0.3,0.1-0.4,0.1c-0.1,0-0.2,0.1-0.3,0.1v-5.3c0-21.1,17.2-38.3,38.3-38.3
			h3.9c21.1,0,38.3,17.2,38.3,38.3v5.2c-0.2,0-0.3-0.1-0.5-0.1c-0.1,0-0.1,0-0.2-0.1c-11.3-2.6-15-17.6-15-17.7
			c-0.7-3.1-3.2-5.5-6.3-6.1c-3.1-0.6-6.3,0.6-8.2,3.2C393,339.2,360.3,339.5,359.9,339.5z M443.3,372.2v-10.9
			c1.7,1.2,2.8,3.2,2.8,5.4S445,371,443.3,372.2z M457.4,125.7c23.4,36.2,36.8,78.3,38.3,122.2h-88.8c-0.7-36.4-5.7-71.5-14.8-103.4
			C417,139.5,439.1,133.2,457.4,125.7z M390.7,247.9H308c0,0,0,0,0,0c-11-12.2-26.5-20.2-43.9-21.6v-69.5c39.7-0.4,78-3.7,112.1-9.4
			C385.1,178.3,390.1,212.4,390.7,247.9z M319.4,332.3c0,4.8-3.2,8.8-7.6,10v-20C316.2,323.6,319.4,327.6,319.4,332.3z M264.1,16.6
			c32.2,3.4,62.4,27.3,86,68.1c8.3,14.3,15.3,30.1,21.2,47.1c-32.6,5.3-69.2,8.4-107.2,8.8L264.1,16.6L264.1,16.6z M259,242.3
			c27.5,0,49.9,22.4,49.9,49.9v9.9c-0.1,0-0.1-0.1-0.2-0.1c-0.1-0.1-0.2-0.2-0.4-0.3c-0.1-0.1-0.2-0.1-0.3-0.2
			c-0.1-0.1-0.2-0.2-0.4-0.2c-0.1-0.1-0.2-0.1-0.4-0.2c-0.1-0.1-0.2-0.1-0.3-0.2c-0.1-0.1-0.3-0.1-0.4-0.2c-0.1,0-0.2-0.1-0.3-0.1
			c-0.2-0.1-0.3-0.1-0.5-0.1c-0.1,0-0.1,0-0.2-0.1c-15.4-3.5-20.2-23.5-20.3-23.7c-0.7-3.1-3.2-5.5-6.3-6.1
			c-3.1-0.6-6.3,0.6-8.2,3.2c-18.9,26.2-60.8,26.4-61.3,26.4c0,0,0,0,0,0c0,0,0,0,0,0c-0.3,0-0.6,0-0.8,0c-0.1,0-0.2,0-0.3,0
			c-0.2,0-0.4,0-0.5,0.1c-0.1,0-0.2,0.1-0.3,0.1c-0.1,0-0.3,0.1-0.4,0.1c-0.1,0-0.3,0.1-0.4,0.1c-0.1,0-0.2,0.1-0.4,0.1
			c-0.1,0.1-0.3,0.1-0.4,0.2c-0.1,0-0.2,0.1-0.3,0.1c-0.1,0.1-0.3,0.2-0.4,0.3c-0.1,0.1-0.2,0.1-0.2,0.1c-0.1,0.1-0.3,0.2-0.4,0.3
			c-0.1,0.1-0.2,0.1-0.2,0.2c-0.1,0.1-0.1,0.1-0.2,0.2v-10.1c0-27.5,22.4-49.9,49.9-49.9L259,242.3L259,242.3z M121.3,247.9
			c0.7-35.5,5.7-69.6,14.6-100.6c34.2,5.7,72.5,9,112.1,9.4v69.6C231,228,215.9,236,205.1,248c-0.3,0-0.6-0.1-0.9-0.1L121.3,247.9
			L121.3,247.9z M201.4,322.3v20.2c-4.5-1.1-7.9-5.2-7.9-10.1C193.5,327.5,196.9,323.4,201.4,322.3z M247.9,16.6v124
			c-37.9-0.4-74.5-3.5-107.1-8.8c5.8-17,12.9-32.8,21.2-47.1C185.5,43.9,215.7,20.1,247.9,16.6z M189.8,25.5
			c-15.4,12.7-29.6,29.9-41.9,51.2c-9.1,15.9-16.9,33.4-23.2,52.3c-22.9-4.5-43.4-10.1-60.5-16.8C95.2,71,139.1,40.1,189.8,25.5z
			 M54.7,125.8c18.2,7.4,40.4,13.7,65.2,18.7c-9.1,32-14.2,67.1-14.8,103.5H16.3C17.8,203,31.7,161.2,54.7,125.8z M106.8,418.2
			c1.7,0.2,3.3,0.3,5.1,0.3h7.4c1.7,0,3.4-0.1,5-0.3v4.5l-9,9.3l-8.5-8.2C106.8,423.8,106.8,418.2,106.8,418.2z M119.2,402.4h-7.4
			c-14.3,0-25.9-11.6-25.9-25.9v-21.4c10.5-1.1,29.2-4.8,43.6-16.8c3.2,5.5,8.2,11.5,15.6,15v23.2
			C145.1,390.8,133.5,402.4,119.2,402.4z M140,321.9c-0.7-3.1-3.2-5.5-6.3-6.1c-3.1-0.6-6.3,0.6-8.2,3.2
			c-14.7,20.2-47.3,20.5-47.7,20.5c0,0,0,0,0,0c-0.3,0-0.6,0-0.8,0c-0.1,0-0.2,0-0.3,0c-0.2,0-0.4,0-0.5,0.1c-0.1,0-0.2,0.1-0.3,0.1
			c-0.1,0-0.3,0.1-0.4,0.1c-0.1,0-0.2,0.1-0.3,0.1v-5.3c0-21.1,17.2-38.3,38.3-38.3h3.9c21.1,0,38.3,17.2,38.3,38.3v5.2h0
			c-0.2-0.1-0.3-0.1-0.5-0.1c-0.1,0-0.1,0-0.2-0.1C143.7,337.1,140,322.1,140,321.9z M16.3,264.1h88.8c0.1,5.6,0.3,11.1,0.6,16.6
			C79.3,284.5,59,307.2,59,334.6v14.3c-5.2,4.2-8.5,10.6-8.5,17.8c0,12.1,9.4,22,21.3,22.8c3.2,9.9,10,18.1,18.8,23.3v4.6l-8.8,3.5
			C41.3,378.1,18.3,322.7,16.3,264.1z M69.8,361.1v11.3c-1.8-1.2-3.1-3.3-3.1-5.6C66.7,364.4,67.9,362.3,69.8,361.1z M149.5,467.7
			v28.2h-9.5H98.7h-8.6h-7.2H44.4v-20.9c0-22.5,17.6-29.1,18.3-29.3c0.1,0,0.2-0.1,0.4-0.1l30.5-11.9l16.2,15.8
			c1.5,1.5,3.5,2.3,5.6,2.3c0,0,0.1,0,0.1,0c2.2,0,4.2-0.9,5.7-2.5l15.3-15.9l18.9,7.6C151.9,448.2,149.5,457.1,149.5,467.7z
			 M227.5,397l-42.9,16.8c-5.5,1.9-13,6.2-19.7,13.4l-24.5-9.8v-4.6c8.8-5.2,15.6-13.4,18.8-23.3c11.8-0.9,21.1-10.8,21.1-22.8
			c0-7.1-3.3-13.5-8.4-17.7v-14.4c0-28.5-22-52-50-54.3c-0.3-5.4-0.5-10.8-0.6-16.3h73.1c-4,8.5-6.3,18.1-6.3,28.1v18.9
			c-6.5,4.9-10.6,12.6-10.6,21.3c0,14.5,11.7,26.3,26.2,26.6c3.8,12.8,12.5,23.5,24,29.9L227.5,397L227.5,397z M161.3,372.2v-10.9
			c1.7,1.2,2.8,3.2,2.8,5.5S163,371,161.3,372.2z M269.6,402.7C269.6,402.7,269.6,402.7,269.6,402.7v0.5l-13.2,13.7l-12.7-12.3
			v-10.2c2.7,0.5,5.5,0.7,8.3,0.7h9.2c2.8,0,5.6-0.2,8.3-0.7V402.7z M261.3,379H252c-19,0-34.4-15.4-34.4-34.4V316
			c12.9-1.2,38.4-5.7,57-22.4c3.9,7.4,10.5,16.1,21,20.6v30.4C295.7,363.5,280.2,379,261.3,379z M347.3,427.3
			c-6.7-7.2-14.3-11.5-19.8-13.4l-41.8-16.8v-8.3c11.5-6.4,20.2-17.1,24-29.9c14.3-0.4,25.8-12.1,25.8-26.5
			c0-8.6-4.1-16.3-10.5-21.2v-18.9c0-10.1-2.3-19.6-6.3-28.1h72c-0.1,5.5-0.3,10.9-0.6,16.4c-27.5,2.7-49.1,26-49.1,54.2V349
			c-5.2,4.2-8.5,10.6-8.5,17.8c0,12.1,9.4,22,21.3,22.8c3.2,9.9,10,18.1,18.8,23.3v4.6L347.3,427.3z M351.8,361.1v11.3
			c-1.9-1.2-3.1-3.3-3.1-5.6C348.7,364.4,349.9,362.3,351.8,361.1z M467.8,495.8h-45.7h-41.4h-8.6h-7.2h-2.2v-28.2
			c0-10.6-2.3-19.4-5.9-26.7l18.9-7.4l16.2,15.8c1.5,1.5,3.5,2.3,5.6,2.3c0,0,0.1,0,0.1,0c2.2,0,4.2-0.9,5.7-2.5l15.3-15.9
			l30.4,12.2c0.1,0.1,0.2,0.1,0.4,0.1c0.8,0.3,18.4,6.8,18.4,29.3L467.8,495.8L467.8,495.8z"/>
	</g>
</g>
</svg>
