<?xml version="1.0" encoding="utf-8"?>
<!-- Generator: Adobe Illustrator 21.0.0, SVG Export Plug-In . SVG Version: 6.00 Build 0)  -->
<svg version="1.1" id="Capa_1" xmlns="http://www.w3.org/2000/svg" xmlns:xlink="http://www.w3.org/1999/xlink" x="0px" y="0px"
	 viewBox="0 0 459.4 459.4" style="enable-background:new 0 0 459.4 459.4;" xml:space="preserve">
<style type="text/css">
	.st0{fill:#DA2134;}
</style>
<g>
	<g>
		
			<rect x="137.7" y="303" transform="matrix(0.8944 -0.4472 0.4472 0.8944 -124.1374 98.0767)" class="st0" width="16" height="17.9"/>
	</g>
</g>
<g>
	<g>
		
			<rect x="312.7" y="304" transform="matrix(0.4472 -0.8944 0.8944 0.4472 -101.2373 460.1407)" class="st0" width="17.9" height="16"/>
	</g>
</g>
<g>
	<g>
		<path class="st0" d="M352.4,220.4L352.4,220.4l-54-27l-20.7-20.7l0,0l0,0c5.2-8.6,8-18.5,8-28.6v-1.2c13.8-3.6,24-16,24-30.9
			c0,0,0,0,0,0V80c0-44.1-35.9-80-80-80s-80,35.9-80,80v32c0,0,0,0,0,0c0,14.9,10.2,27.3,24,30.9v1.2c0,10.2,2.9,20.1,8,28.6l0,0
			l0,0l-20.7,20.8l-54,27l0,0l-45.3,22.6V456h16V252.9l36.4-18.2l17.4,34.8l-31.8,23.8l71.9,159.8c1.5,3.4,4.8,5.4,8.4,5.4
			c0.7,0,1.5-0.1,2.2-0.3c4.3-1.1,7.2-5.1,7-9.5l-12.2-194.5l16.4-4.4l12.1,23.7l-7.9,134.7l8.2,48.9l15.8-2.6l-7.8-47.1l7.5-127.6
			h16.9l7.5,127.6l-7.8,47.1l15.8,2.6l8.2-48.9l-7.9-134.7l12.1-23.9l16.4,4.3l-12.2,195.5c-0.3,4.4,2.5,8.3,6.8,9.5
			c0.8,0.2,1.6,0.3,2.4,0.3c3.4,0,6.6-1.9,8.2-5.1l26.5-53c5.5,4.3,12.4,6.8,19.7,6.8c17.6,0,32-14.4,32-32
			c0-14.7-10.1-27.1-23.7-30.8l26.1-52.3l-40-24l17.1-34.2l36.4,18.2V456h16V243.1L352.4,220.4z M119.6,298.5l32.2-24.2l-23.4-46.8
			l30-15l2.9,46.1l9.6,154L119.6,298.5z M285.7,125.8V98.1c4.8,2.8,8,7.9,8,13.8S290.5,123.1,285.7,125.8z M173.7,125.9
			c-4.8-2.8-8-7.9-8-13.9s3.2-11.1,8-13.8V125.9z M173.7,72v9.1c-2.8,0.7-5.5,1.9-8,3.3V80c0-35.3,28.7-64,64-64s64,28.7,64,64v4.4
			c-2.5-1.4-5.2-2.6-8-3.3V72c0-8.5-3.3-16.6-9.4-22.6S262.2,40,253.7,40h-3.3l-2.3,2.3c-9.8,9.8-26.9,9.8-36.7,0L209,40h-3.3
			C188,40,173.7,54.4,173.7,72z M229.7,184c-10.7,0-20.8-4.2-28.3-11.7c-1.1-1.1-2.1-2.1-3-3.3l-0.5-0.6c-5.4-7-8.3-15.3-8.3-24.3v0
			V80v-8c0-7.9,5.7-14.4,13.2-15.8c15,12.5,38.6,12.5,53.6,0c3.2,0.6,6.1,2.1,8.5,4.4c3,3,4.7,7,4.7,11.3v8v64v0
			c0,9-2.9,17.5-8.5,24.5l-0.1,0.2C253.5,178.4,242,184,229.7,184z M258,192.4l-28.3,28.3l-28.3-28.3c0.1,0.1,0.2,0.1,0.3,0.2
			c0.8,0.5,1.7,1,2.5,1.4c0.4,0.2,0.8,0.4,1.2,0.6c1.2,0.6,2.4,1.1,3.6,1.6c0.3,0.1,0.6,0.2,1,0.3c1.3,0.5,2.7,1,4,1.4
			c0.2,0,0.3,0.1,0.5,0.1c4.8,1.3,9.9,2.1,15.1,2.1c1.1,0,2.1-0.1,3.2-0.2c0.8,0,1.6-0.1,2.4-0.1c1.1-0.1,2.2-0.3,3.3-0.5
			c0.8-0.1,1.6-0.3,2.4-0.4c1.1-0.2,2.1-0.5,3.2-0.8c0.8-0.2,1.6-0.4,2.4-0.7c1-0.3,2.1-0.7,3.1-1c0.6-0.2,1.2-0.5,1.8-0.7
			c0.1,0,0.2-0.1,0.3-0.2c0,0,0.1,0,0.1,0c1-0.4,2-0.8,3-1.3c0.6-0.3,1.2-0.7,1.8-1c0.2-0.1,0.5-0.3,0.7-0.4
			C257.5,192.6,257.7,192.5,258,192.4z M186.1,235.4l-10,2.7l-2.2-35l7.8-7.8l32.5,32.5L186.1,235.4z M240.8,264h-22.2l-9.3-18.2
			l20.4-5.5l16.4,4.3l4,1L240.8,264z M283.3,237.8l-10-2.6l-28.1-7.4l32.5-32.5l7.8,7.8L283.3,237.8z M349.7,376c0,8.8-7.2,16-16,16
			c-6.1,0-11.5-3.3-14.2-8.7l-0.1-0.1c-1.1-2.2-1.7-4.7-1.7-7.2c0-7.8,5.5-14.4,13.2-15.7c0.9-0.2,1.8-0.3,2.8-0.3
			C342.5,360,349.7,367.2,349.7,376z M307.2,275l40,24L324,345.5c-0.3,0.1-0.6,0.3-1,0.4c-0.5,0.2-0.9,0.4-1.4,0.5
			c-1.2,0.5-2.4,1-3.6,1.7c-0.5,0.3-0.9,0.5-1.4,0.8c-1.1,0.7-2.1,1.4-3.1,2.1c-0.4,0.3-0.9,0.7-1.3,1.1c-0.9,0.8-1.8,1.7-2.6,2.6
			c-0.4,0.4-0.8,0.8-1.1,1.3c-0.8,0.9-1.4,1.9-2.1,3c-0.3,0.5-0.6,0.9-0.9,1.4c-0.6,1.1-1.1,2.2-1.6,3.3c-0.2,0.5-0.5,1-0.6,1.5
			c-0.4,1.2-0.8,2.6-1.1,3.9c-0.1,0.5-0.3,0.9-0.3,1.4c-0.3,1.8-0.5,3.6-0.5,5.5c0,0,0,0,0,0s0,0,0,0c0,0,0,0.1,0,0.1
			c0,2.2,0.3,4.3,0.8,6.4c0.1,0.7,0.3,1.3,0.5,1.9c0.2,0.7,0.3,1.3,0.5,2l-15.3,30.7l9.9-159l2.8-45.6l30,15L307.2,275z"/>
	</g>
</g>
</svg>
