<?xml version="1.0" encoding="utf-8"?>
<!-- Generator: Adobe Illustrator 21.0.0, SVG Export Plug-In . SVG Version: 6.00 Build 0)  -->
<svg version="1.1" id="Layer_1" xmlns="http://www.w3.org/2000/svg" xmlns:xlink="http://www.w3.org/1999/xlink" x="0px" y="0px"
	 viewBox="0 0 512 512" style="enable-background:new 0 0 512 512;" xml:space="preserve">
<style type="text/css">
	.st0{fill:#DA2134;}
</style>
<g>
	<g>
		<path class="st0" d="M341.5,169.5l-7.1-4.1c-0.5-0.3-0.8-0.8-0.7-1.4c0.4-3.4,0.7-6.8,0.7-10.2c0-3.4-0.2-6.9-0.7-10.2
			c-0.1-0.5,0.2-1.1,0.7-1.4l7.1-4.1c8.4-4.9,11.3-15.6,6.4-24L336.4,94c-2.4-4.1-6.1-7-10.7-8.2c-4.5-1.2-9.3-0.6-13.4,1.8
			l-7.1,4.1c-0.5,0.3-1.1,0.3-1.5-0.1c-5.5-4.2-11.4-7.6-17.7-10.3c-0.5-0.2-0.8-0.7-0.8-1.3v-8.2c0-9.7-7.9-17.6-17.6-17.6h-23.2
			c-9.7,0-17.6,7.9-17.6,17.6v8.2c0,0.6-0.3,1.1-0.8,1.3c-6.3,2.6-12.3,6.1-17.8,10.3c-0.4,0.3-1,0.4-1.5,0.1l-7.1-4.1
			c-4.1-2.3-8.8-3-13.4-1.8C181.8,87,178,90,175.6,94L164,114.1c-2.4,4.1-3,8.8-1.8,13.4c1.2,4.5,4.1,8.3,8.2,10.7l7.1,4.1
			c0.5,0.3,0.8,0.8,0.7,1.4c-0.4,3.4-0.7,6.8-0.7,10.2c0,3.4,0.2,6.9,0.7,10.2c0.1,0.5-0.2,1.1-0.7,1.4l-7.1,4.1
			c-8.4,4.9-11.3,15.6-6.4,24l11.6,20.1c4.9,8.4,15.6,11.3,24,6.4l7.1-4.1c0.5-0.3,1.1-0.3,1.5,0.1c5.5,4.2,11.4,7.6,17.7,10.3
			c0.5,0.2,0.8,0.7,0.8,1.3v8.2c0,9.7,7.9,17.6,17.6,17.6h23.2c9.7,0,17.6-7.9,17.6-17.6v-8.2c0-0.6,0.3-1.1,0.8-1.3
			c6.3-2.6,12.3-6.1,17.8-10.3c0.4-0.3,1-0.3,1.5-0.1l7.1,4.1c8.4,4.9,19.2,2,24-6.4l11.6-20.1C352.8,185.1,349.9,174.3,341.5,169.5
			z M334,185.4l-11.6,20.1c-0.4,0.7-1.3,0.9-1.9,0.5l-7.1-4.1c-6.2-3.6-13.8-3.1-19.5,1.2c-4.3,3.3-9.1,6.1-14.1,8.1
			c-6.5,2.7-10.8,9.1-10.8,16.2v8.2c0,0.8-0.6,1.4-1.4,1.4h-23.2c-0.8,0-1.4-0.6-1.4-1.4v-8.2c0-7.1-4.2-13.5-10.8-16.2
			c-5-2.1-9.8-4.8-14.1-8.1c-3.1-2.4-6.9-3.6-10.6-3.6c-3,0-6.1,0.8-8.8,2.4l-7.1,4.1c-0.7,0.4-1.6,0.2-1.9-0.5L178,185.4
			c-0.2-0.4-0.2-0.8-0.1-1.1c0.1-0.3,0.2-0.6,0.7-0.9l7.1-4.1c6.2-3.6,9.6-10.4,8.6-17.5c-0.4-2.7-0.5-5.4-0.5-8.1
			c0-2.7,0.2-5.5,0.5-8.1c0.9-7-2.5-13.9-8.7-17.5l-7.1-4.1c-0.7-0.4-0.9-1.3-0.5-1.9l11.6-20.1c0.2-0.4,0.6-0.6,0.9-0.7
			c0.3-0.1,0.7-0.1,1.1,0.1l7.1,4.1c6.2,3.6,13.8,3.1,19.5-1.2c4.3-3.3,9.1-6.1,14.1-8.1c6.6-2.7,10.8-9.1,10.8-16.2v-8.2
			c0-0.8,0.6-1.4,1.4-1.4h23.2c0.8,0,1.4,0.6,1.4,1.4v8.2c0,7.1,4.2,13.5,10.8,16.2c5,2.1,9.8,4.8,14.1,8.1
			c5.6,4.3,13.3,4.8,19.5,1.2l7.1-4.1c0.4-0.2,0.8-0.2,1.1-0.1c0.3,0.1,0.6,0.2,0.9,0.7l11.6,20.1c0.2,0.4,0.2,0.8,0.1,1.1
			s-0.2,0.6-0.7,0.9l-7.1,4.1c-6.2,3.6-9.6,10.4-8.6,17.5c0.4,2.7,0.5,5.4,0.5,8.1c0,2.7-0.2,5.5-0.5,8.1c-0.9,7,2.5,13.9,8.7,17.5
			l7.1,4.1C334.1,183.9,334.3,184.8,334,185.4z"/>
	</g>
</g>
<g>
	<g>
		<path class="st0" d="M256,113.4c-22.3,0-40.4,18.1-40.4,40.4s18.1,40.4,40.4,40.4s40.4-18.1,40.4-40.4S278.3,113.4,256,113.4z
			 M256,178.1c-13.4,0-24.3-10.9-24.3-24.3c0-13.4,10.9-24.3,24.3-24.3c13.4,0,24.3,10.9,24.3,24.3S269.4,178.1,256,178.1z"/>
	</g>
</g>
<g>
	<g>
		<path class="st0" d="M389.7,245c16.5-25.6,25.3-55.4,25.3-86.1c0-42.1-16.3-81.8-45.9-111.8C339.5,17.3,300.1,0.5,258,0
			c-0.7,0-1.3,0-2,0c-41.7,0-81,16.1-111.1,45.5C114.4,75.3,97.4,115,97,157.4c-0.3,31,8.3,61.1,24.9,87
			c14.8,23.2,35.2,42,59.3,54.9l-43.5,60.9c-3.1,4.4-3.5,10-1.1,14.8c2.4,4.8,7.3,7.7,12.6,7.7h33.9v15.1c0,9.5,7.8,17.3,17.3,17.3
			h110.9c9.5,0,17.3-7.8,17.3-17.3v-15.1h33.9c5.4,0,10.2-3,12.6-7.7c2.4-4.8,2-10.4-1.1-14.8l-43.5-60.9
			C354.7,286.6,374.9,267.9,389.7,245z M183.2,366.5h-30.1l30.1-42.1V366.5z M312.6,397.7c0,0.6-0.5,1.1-1.1,1.1H200.5
			c-0.6,0-1.1-0.5-1.1-1.1v-4.9l113.2-9.4V397.7z M312.6,367.1l-113.2,9.4v-16.1l113.2-9.4V367.1z M358.9,366.5h-30.1v-42.1
			L358.9,366.5z M317.2,288.1c-2.8,1.3-4.6,4.2-4.6,7.3v7.1l-25,2.1c-4.2,0.3-7.4,3.9-7.4,8.1c0,4.7,4,8.4,8.8,8.1l23.6-2v16.1
			l-113.2,9.4v-16.1l50.2-4.2c4.2-0.3,7.4-3.9,7.4-8.1c0-4.7-4-8.4-8.8-8.1l-48.8,4.1v-16.5c0-3.1-1.8-6-4.6-7.3
			c-50.1-23.8-82.1-75-81.6-130.5c0.4-38,15.7-73.7,43.1-100.5c27-26.4,62.3-40.9,99.8-40.9c0.6,0,1.2,0,1.8,0
			c77.8,1,141,65,141,142.8C398.8,213.8,366.8,264.5,317.2,288.1z"/>
	</g>
</g>
<g>
	<g>
		<path class="st0" d="M256,474.3c-4.5,0-8.1,3.6-8.1,8.1v10.8c0,4.5,3.6,8.1,8.1,8.1c4.5,0,8.1-3.6,8.1-8.1v-10.8
			C264.1,477.9,260.5,474.3,256,474.3z"/>
	</g>
</g>
<g>
	<g>
		<path class="st0" d="M212.9,420.4c-4.5,0-8.1,3.6-8.1,8.1v75.5c0,4.5,3.6,8.1,8.1,8.1s8.1-3.6,8.1-8.1v-75.5
			C221,424,217.4,420.4,212.9,420.4z"/>
	</g>
</g>
<g>
	<g>
		<path class="st0" d="M299.1,420.4c-4.5,0-8.1,3.6-8.1,8.1v75.5c0,4.5,3.6,8.1,8.1,8.1c4.5,0,8.1-3.6,8.1-8.1v-75.5
			C307.2,424,303.6,420.4,299.1,420.4z"/>
	</g>
</g>
<g>
	<g>
		<path class="st0" d="M256,420.4c-4.5,0-8.1,3.6-8.1,8.1V450c0,4.5,3.6,8.1,8.1,8.1c4.5,0,8.1-3.6,8.1-8.1v-21.6
			C264.1,424,260.5,420.4,256,420.4z"/>
	</g>
</g>
</svg>
