<?xml version="1.0" encoding="utf-8"?>
<!-- Generator: Adobe Illustrator 21.0.0, SVG Export Plug-In . SVG Version: 6.00 Build 0)  -->
<svg version="1.1" id="Layer_1" xmlns="http://www.w3.org/2000/svg" xmlns:xlink="http://www.w3.org/1999/xlink" x="0px" y="0px"
	 viewBox="0 0 512 512" style="enable-background:new 0 0 512 512;" xml:space="preserve">
<style type="text/css">
	.st0{fill:#DA2134;}
</style>
<g>
	<g>
		<g>
			<path class="st0" d="M438.2,101.4L339.9,3.1c-2-2-4.7-3.1-7.5-3.1H104C85.6,0,70.7,14.9,70.7,33.3v445.4
				c0,18.4,14.9,33.3,33.3,33.3h304c18.4,0,33.3-14.9,33.3-33.3V109C441.3,106.1,440.2,103.4,438.2,101.4z M404.9,98.3L404.9,98.3
				l-61.9,0V36.4l0,0L404.9,98.3z M420,478.7c0,6.6-5.4,12-12,12H104c-6.6,0-12-5.4-12-12V33.3c0-6.6,5.4-12,12-12h217.7V109
				c0,5.9,4.8,10.7,10.7,10.7H420V478.7z"/>
			<path class="st0" d="M308.7,161.3c-3.8,4.5-3.3,11.2,1.2,15l53.5,45.7l-53.5,45.7c-4.5,3.8-5,10.6-1.2,15
				c2.1,2.5,5.1,3.7,8.1,3.7c2.5,0,4.9-0.8,6.9-2.6l63-53.8c2.4-2,3.7-5,3.7-8.1s-1.4-6.1-3.7-8.1l-63-53.8
				C319.2,156.3,312.5,156.8,308.7,161.3z"/>
			<path class="st0" d="M195.2,286.5c3,0,6-1.3,8.1-3.7c3.8-4.5,3.3-11.2-1.2-15L148.7,222l53.5-45.7c4.5-3.8,5-10.6,1.2-15
				s-10.6-5-15-1.2l-63,53.8c-2.4,2-3.7,5-3.7,8.1s1.4,6.1,3.7,8.1l63,53.8C190.3,285.7,192.8,286.5,195.2,286.5z"/>
			<path class="st0" d="M229,304.9c1.1,0.4,2.2,0.5,3.3,0.5c4.5,0,8.7-2.9,10.1-7.4l47.3-145.4c1.8-5.6-1.2-11.6-6.8-13.4
				c-5.6-1.8-11.6,1.2-13.4,6.8l-47.3,145.4C220.4,297.1,223.4,303.1,229,304.9z"/>
			<path class="st0" d="M306.2,346.4c0-5.9-4.8-10.7-10.7-10.7H187.7c-5.9,0-10.7,4.8-10.7,10.7s4.8,10.7,10.7,10.7h107.8
				C301.4,357.1,306.2,352.3,306.2,346.4z"/>
			<path class="st0" d="M146.9,335.7h-1.3c-5.9,0-10.7,4.8-10.7,10.7s4.8,10.7,10.7,10.7h1.3c5.9,0,10.7-4.8,10.7-10.7
				S152.8,335.7,146.9,335.7z"/>
			<path class="st0" d="M366.4,383.7H207.5c-5.9,0-10.7,4.8-10.7,10.7s4.8,10.7,10.7,10.7h158.9c5.9,0,10.7-4.8,10.7-10.7
				S372.3,383.7,366.4,383.7z"/>
			<path class="st0" d="M302.4,431.7h-94.9c-5.9,0-10.7,4.8-10.7,10.7s4.8,10.7,10.7,10.7h94.9c5.9,0,10.7-4.8,10.7-10.7
				S308.3,431.7,302.4,431.7z"/>
		</g>
	</g>
</g>
</svg>
